<svg width="582" height="472" viewBox="0 0 582 472" fill="none" xmlns="http://www.w3.org/2000/svg">
<circle cx="284.764" cy="180.016" r="144.5" stroke="#4F9CF9" stroke-width="2" stroke-dasharray="15 15"/>
<circle cx="181.875" cy="325.516" r="144.5" stroke="#4F9CF9" stroke-width="2" stroke-dasharray="15 15"/>
<circle cx="400.125" cy="325.516" r="144.5" stroke="#4F9CF9" stroke-width="2" stroke-dasharray="15 15"/>
<circle cx="429.225" cy="183.134" r="36.375" fill="white"/>
<g clip-path="url(#clip0_1_613)">
<path d="M423.379 184.413C420.861 184.413 418.812 186.462 418.812 188.98V200.393C418.812 202.911 420.861 204.959 423.379 204.959C425.898 204.96 427.946 202.911 427.946 200.393V188.98C427.946 186.462 425.898 184.413 423.379 184.413Z" fill="#FF4340"/>
<path d="M416.257 184.413H411.835C409.397 184.413 407.414 186.397 407.414 188.835C407.414 191.273 409.397 193.256 411.835 193.256C414.273 193.256 416.257 191.272 416.257 188.835V184.413Z" fill="#FF4340"/>
<path d="M407.4 177.289C407.4 179.807 409.449 181.856 411.967 181.856H423.38C425.898 181.856 427.947 179.807 427.947 177.289C427.947 174.771 425.898 172.722 423.38 172.722H411.967C409.449 172.722 407.4 174.771 407.4 177.289V177.289Z" fill="#36C6FF"/>
<path d="M423.527 170.164H427.948V165.743C427.948 163.305 425.965 161.322 423.527 161.322C421.089 161.322 419.105 163.305 419.105 165.743C419.105 168.181 421.089 170.164 423.527 170.164Z" fill="#36C6FF"/>
<path d="M435.071 181.856C437.589 181.856 439.638 179.807 439.638 177.289V165.876C439.638 163.358 437.589 161.309 435.071 161.309C432.553 161.309 430.504 163.358 430.504 165.876V177.289C430.504 179.807 432.553 181.856 435.071 181.856Z" fill="#0DC46E"/>
<path d="M442.195 181.856H446.617C449.054 181.856 451.038 179.873 451.038 177.435C451.038 174.997 449.054 173.013 446.617 173.013C444.179 173.013 442.195 174.997 442.195 177.435V181.856Z" fill="#0DC46E"/>
<path d="M451.05 188.98C451.05 186.462 449.001 184.413 446.483 184.413H435.071C432.553 184.413 430.504 186.462 430.504 188.98C430.504 191.498 432.553 193.547 435.071 193.547H446.483C449.001 193.547 451.05 191.498 451.05 188.98Z" fill="#FDCB02"/>
<path d="M434.925 196.104H430.504V200.526C430.504 202.964 432.487 204.947 434.925 204.947C437.363 204.947 439.346 202.964 439.346 200.526C439.346 198.088 437.363 196.104 434.925 196.104Z" fill="#FDCB02"/>
</g>
<circle cx="36.375" cy="314.084" r="36.375" fill="white"/>
<g clip-path="url(#clip1_1_613)">
<path d="M56.8351 301.808H37.7383C36.9853 301.808 36.3742 302.419 36.3742 303.172C36.3742 303.925 36.9853 304.536 37.7383 304.536H52.8603L44.4795 311.054L38.4694 307.232L37.0071 309.534L43.8274 313.872C44.0484 314.014 44.3049 314.085 44.5586 314.085C44.8532 314.085 45.1506 313.989 45.3961 313.798L55.4711 305.961V323.633H37.7383C36.9853 323.633 36.3742 324.244 36.3742 324.997C36.3742 325.75 36.9853 326.361 37.7383 326.361H56.8351C57.5881 326.361 58.1992 325.75 58.1992 324.997V303.172C58.1992 302.419 57.5881 301.808 56.8351 301.808Z" fill="#1976D2"/>
<path d="M38.6093 293.938C38.2983 293.679 37.8809 293.567 37.4881 293.649L15.6631 297.741C15.0165 297.861 14.55 298.423 14.55 299.08V329.09C14.55 329.745 15.0165 330.309 15.6631 330.429L37.4881 334.521C37.5699 334.538 37.6545 334.546 37.7391 334.546C38.0555 334.546 38.3638 334.437 38.6093 334.232C38.9231 333.973 39.1031 333.586 39.1031 333.182V294.988C39.1031 294.582 38.9231 294.197 38.6093 293.938Z" fill="#2196F3"/>
<path d="M26.8273 323.633C23.068 323.633 20.007 319.961 20.007 315.449C20.007 310.936 23.068 307.264 26.8273 307.264C30.5867 307.264 33.6476 310.936 33.6476 315.449C33.6476 319.961 30.5867 323.633 26.8273 323.633ZM26.8273 309.993C24.5712 309.993 22.7351 312.44 22.7351 315.449C22.7351 318.458 24.5712 320.905 26.8273 320.905C29.0835 320.905 30.9195 318.458 30.9195 315.449C30.9195 312.44 29.0835 309.993 26.8273 309.993Z" fill="#FAFAFA"/>
</g>
<circle cx="545.625" cy="314.084" r="36.375" fill="white"/>
<g clip-path="url(#clip2_1_613)">
<path d="M545.586 306.048L536.527 321.761H536.502L541.748 328.159L529.976 333.098C529.745 332.97 529.566 332.791 529.464 332.612L523.936 322.375C523.655 321.812 523.885 321.377 523.962 321.121L538.779 295.53C538.882 295.377 539.035 295.223 539.24 295.095H539.265L546.866 297.449L545.586 306.048Z" fill="#59C36A"/>
<path d="M567.45 321.761L557.187 328.159L554.756 321.761L545.586 306.048L539.265 295.095C539.444 294.967 539.674 294.89 539.879 294.89H551.378C551.634 294.967 552.146 294.941 552.479 295.53L567.296 321.122C567.398 321.301 567.45 321.531 567.45 321.761Z" fill="#FFDA2D"/>
<path d="M552.48 295.531C552.147 294.942 551.635 294.968 551.379 294.891H545.587V306.049L554.757 321.762L557.189 328.16L567.451 321.762C567.451 321.532 567.399 321.302 567.297 321.123L552.48 295.531Z" fill="#FDBF00"/>
<path d="M567.45 321.761C567.45 321.992 567.399 322.222 567.322 322.376L561.794 332.612C561.589 332.945 561.103 333.278 560.668 333.278H530.59C530.385 333.278 530.155 333.201 529.976 333.098L536.502 321.761H567.45Z" fill="#4086F4"/>
<path d="M545.587 333.278H560.669C561.104 333.278 561.59 332.945 561.795 332.612L567.323 322.376C567.4 322.222 567.451 321.992 567.451 321.761H545.587V333.278H545.587Z" fill="#4175DF"/>
</g>
<circle cx="139.264" cy="183.134" r="36.375" fill="white"/>
<g clip-path="url(#clip3_1_613)">
<path d="M126.013 193.969V190.461L131.937 193.891L139.264 187.031V202.621L126.013 193.969Z" fill="#0093EB"/>
<path d="M118.921 184.693L126.638 177.678L139.265 185.473L131.938 192.332L118.921 184.693Z" fill="#0093EB"/>
<path d="M126.637 177.678L117.439 170.663L130.69 163.647L140.043 169.883L126.637 177.678Z" fill="#0093EB"/>
<path d="M152.514 194.046L139.263 202.621V187.031L146.824 193.579L152.514 189.993V194.046Z" fill="#0093EB"/>
<path d="M146.824 192.02L139.263 185.472L151.968 177.366L159.607 183.913L146.824 192.02Z" fill="#0093EB"/>
<path d="M151.968 177.366L140.042 169.883L149.396 163.647L161.088 170.663L151.968 177.366Z" fill="#0093EB"/>
</g>
<circle cx="291" cy="416.974" r="36.375" fill="white"/>
<g clip-path="url(#clip4_1_613)">
<path d="M308.938 408.107H273.132C272.425 408.107 271.853 407.535 271.853 406.828V398.985C271.853 396.869 273.574 395.148 275.689 395.148H306.381C308.496 395.148 310.217 396.869 310.217 398.985V406.828C310.217 407.535 309.645 408.107 308.938 408.107Z" fill="#E3E7EA"/>
<path d="M306.38 395.148H291.035V408.107H308.938C309.645 408.107 310.217 407.535 310.217 406.828V398.985C310.217 396.869 308.496 395.148 306.38 395.148Z" fill="#BABAC0"/>
<path d="M271.804 422.174C271.804 422.172 271.804 422.171 271.804 422.171L269.26 410.051C269.081 408.9 269.388 407.749 270.104 406.905C270.846 406.035 271.92 405.549 273.045 405.549H308.955C310.08 405.549 311.154 406.035 311.896 406.905C312.612 407.749 312.919 408.9 312.74 410L310.196 422.177L312.74 434.297C312.919 435.448 312.612 436.599 311.896 437.443C311.154 438.312 310.08 438.798 308.955 438.798H273.045C271.92 438.798 270.846 438.312 270.104 437.443C269.388 436.599 269.081 435.448 269.26 434.348C269.26 434.348 271.76 422.385 271.804 422.174Z" fill="#4086F4"/>
<path d="M271.804 422.171C271.804 422.171 271.804 422.172 271.804 422.174H310.196L312.74 410C312.919 408.9 312.612 407.749 311.896 406.905C311.154 406.035 310.08 405.549 308.955 405.549H273.045C271.92 405.549 270.846 406.035 270.104 406.905C269.388 407.749 269.081 408.9 269.26 410.051L271.804 422.171Z" fill="#4175DF"/>
<path d="M278.212 402.821C278.918 402.821 279.491 402.249 279.491 401.542C279.491 400.836 278.918 400.264 278.212 400.264C277.506 400.264 276.933 400.836 276.933 401.542C276.933 402.249 277.506 402.821 278.212 402.821Z" fill="#FFF5F5"/>
<path d="M303.788 402.821C304.494 402.821 305.067 402.249 305.067 401.542C305.067 400.836 304.494 400.264 303.788 400.264C303.082 400.264 302.509 400.836 302.509 401.542C302.509 402.249 303.082 402.821 303.788 402.821Z" fill="#E3E7EA"/>
<path d="M285.885 431.125C283.722 431.125 281.782 429.756 281.062 427.715C280.826 427.049 281.174 426.319 281.841 426.084C282.504 425.847 283.237 426.198 283.472 426.863C283.833 427.882 284.803 428.568 285.885 428.568C287.295 428.568 288.442 427.42 288.442 426.01C288.442 424.6 287.295 423.453 285.885 423.453H284.295C283.589 423.453 283.016 422.881 283.016 422.174C283.016 421.467 283.589 420.895 284.295 420.895H285.885C287.295 420.895 288.442 419.747 288.442 418.337C288.442 416.927 287.295 415.78 285.885 415.78C284.803 415.78 283.833 416.465 283.472 417.484C283.237 418.151 282.503 418.501 281.841 418.264C281.174 418.029 280.826 417.298 281.062 416.633C281.782 414.592 283.722 413.222 285.885 413.222C288.706 413.222 291 415.516 291 418.337C291 419.863 290.328 421.236 289.264 422.174C290.328 423.112 291 424.484 291 426.01C291 428.831 288.706 431.125 285.885 431.125Z" fill="#FFF5F5"/>
<path d="M281.841 418.264C282.503 418.501 283.237 418.151 283.472 417.484C283.833 416.465 284.803 415.78 285.885 415.78C287.294 415.78 288.442 416.927 288.442 418.337C288.442 419.747 287.294 420.895 285.885 420.895H284.295C283.589 420.895 283.016 421.467 283.016 422.174H289.264C290.328 421.236 291 419.863 291 418.337C291 415.516 288.706 413.222 285.885 413.222C283.722 413.222 281.782 414.592 281.062 416.633C280.825 417.298 281.174 418.029 281.841 418.264Z" fill="#E3E7EA"/>
<path d="M298.674 431.125C297.967 431.125 297.395 430.553 297.395 429.847V416.89L295.547 418.122C294.957 418.512 294.164 418.355 293.773 417.768C293.381 417.18 293.54 416.387 294.128 415.994L297.964 413.437C298.356 413.176 298.862 413.151 299.277 413.373C299.693 413.595 299.953 414.029 299.953 414.501V429.847C299.953 430.553 299.381 431.125 298.674 431.125Z" fill="#FFF5F5"/>
<path d="M295.547 418.123L297.395 416.89V422.174H299.953V414.501C299.953 414.029 299.693 413.596 299.277 413.374C298.862 413.151 298.356 413.176 297.964 413.437L294.128 415.995C293.54 416.387 293.381 417.18 293.773 417.768C294.164 418.355 294.957 418.513 295.547 418.123Z" fill="#E3E7EA"/>
</g>
<circle cx="287.882" cy="36.5952" r="36.375" fill="white"/>
<g clip-path="url(#clip5_1_613)">
<path d="M304.252 20.2263H271.514V52.9638H304.252V20.2263Z" fill="#ECEFF1"/>
<path d="M287.882 40.0381L304.25 52.964V27.4451L287.882 40.0381Z" fill="#CFD8DC"/>
<path d="M305.615 20.2266H304.251L287.882 33.1524L271.514 20.2266H270.15C267.891 20.2266 266.057 22.0599 266.057 24.3188V48.8719C266.057 51.1308 267.891 52.9641 270.15 52.9641H271.514V27.4452L287.882 40.0355L304.251 27.4425V52.9641H305.615C307.874 52.9641 309.707 51.1308 309.707 48.8719V24.3188C309.707 22.0599 307.874 20.2266 305.615 20.2266Z" fill="#F44336"/>
</g>
<circle cx="289.961" cy="278.748" r="51.9643" fill="white"/>
<path d="M265 266.401V275.483C265 278.249 268.454 279.724 270.565 277.788L280.641 268.706C282.848 266.724 281.408 263.22 278.386 263.22H268.31C266.487 263.22 265 264.649 265 266.401Z" fill="#5986EF"/>
<path d="M312.69 263.22H302.614C299.64 263.22 298.152 266.724 300.359 268.706L310.435 277.788C312.546 279.678 316 278.249 316 275.483V266.401C316 264.649 314.513 263.22 312.69 263.22Z" fill="#5986EF"/>
<path d="M292.779 285.394L310.435 301.344C312.546 303.234 316 301.805 316 299.039V289.866C316 288.99 315.616 288.16 314.944 287.561L292.779 267.507C291.484 266.355 289.516 266.355 288.221 267.507L266.056 287.561C265.384 288.16 265 288.99 265 289.866V299.039C265 301.805 268.454 303.28 270.565 301.344L288.221 285.394C289.516 284.241 291.484 284.241 292.779 285.394Z" fill="#5986EF"/>
<defs>
<clipPath id="clip0_1_613">
<rect width="43.65" height="43.65" fill="white" transform="translate(407.4 161.309)"/>
</clipPath>
<clipPath id="clip1_1_613">
<rect width="43.65" height="43.65" fill="white" transform="translate(14.55 292.259)"/>
</clipPath>
<clipPath id="clip2_1_613">
<rect width="43.65" height="43.65" fill="white" transform="translate(523.8 292.259)"/>
</clipPath>
<clipPath id="clip3_1_613">
<rect width="43.65" height="43.65" fill="white" transform="translate(117.439 161.309)"/>
</clipPath>
<clipPath id="clip4_1_613">
<rect width="43.65" height="43.65" fill="white" transform="translate(269.175 395.148)"/>
</clipPath>
<clipPath id="clip5_1_613">
<rect width="43.65" height="43.65" fill="white" transform="translate(266.057 14.7703)"/>
</clipPath>
</defs>
</svg>
