<svg width="760" height="401" viewBox="0 0 760 401" fill="none" xmlns="http://www.w3.org/2000/svg">
<path d="M679.868 316.957C679.868 151.345 545.612 17.0898 380 17.0898C214.388 17.0898 80.1324 151.345 80.1324 316.957" stroke="#A7CEFC" stroke-width="2" stroke-dasharray="15 15"/>
<line x1="78.5072" y1="315.457" x2="679.868" y2="315.457" stroke="#A7CEFC" stroke-width="3" stroke-dasharray="15 15"/>
<line x1="200.811" y1="75.5387" x2="326.771" y2="251.071" stroke="#A7CEFC" stroke-width="3" stroke-dasharray="15 15"/>
<line x1="581.47" y1="94.5042" x2="456.752" y2="252.064" stroke="#A7CEFC" stroke-width="3" stroke-dasharray="15 15"/>
<rect x="324.615" y="250.195" width="133.525" height="133.525" rx="8.5" stroke="#A7CEFC" stroke-width="3" stroke-dasharray="15 15"/>
<g filter="url(#filter0_d_1_426)">
<rect x="350.745" y="276.325" width="81.2649" height="81.2649" rx="10" fill="white"/>
</g>
<g filter="url(#filter1_d_1_426)">
<rect x="39.5" y="276.325" width="81.2649" height="81.2649" rx="10" fill="white"/>
</g>
<path d="M78.3097 320.086C77.9196 320.086 77.5296 319.938 77.2325 319.64C76.6374 319.045 76.6374 318.08 77.2325 317.485L87.1069 307.611C87.7011 307.016 88.6672 307.016 89.2614 307.611C89.8564 308.206 89.8564 309.17 89.2614 309.765L79.387 319.64C79.0899 319.938 78.6998 320.086 78.3097 320.086Z" fill="#FFE492"/>
<path d="M78.3092 320.086C77.9191 320.086 77.5298 319.938 77.2319 319.64L72.2539 314.663C71.6589 314.068 71.6589 313.103 72.2539 312.508C72.8482 311.913 73.8135 311.913 74.4085 312.508L79.3865 317.485C79.9815 318.081 79.9815 319.045 79.3865 319.64C79.0893 319.938 78.6993 320.086 78.3092 320.086Z" fill="#FFE492"/>
<path d="M80.1311 335.953C79.9726 335.953 79.8118 335.928 79.6534 335.876C69.9138 332.663 63.3702 323.614 63.3702 313.357C63.3702 312.516 64.0528 311.833 64.8939 311.833C65.735 311.833 66.4176 312.516 66.4176 313.357C66.4176 322.295 72.1201 330.182 80.608 332.981C81.4072 333.245 81.8414 334.107 81.5778 334.906C81.3668 335.547 80.771 335.953 80.1311 335.953Z" fill="#FFE492"/>
<path d="M64.8939 314.881C64.0528 314.881 63.3702 314.198 63.3702 313.357V302.577C63.3702 301.736 64.0528 301.054 64.8939 301.054C65.735 301.054 66.4176 301.736 66.4176 302.577V313.357C66.4176 314.199 65.735 314.881 64.8939 314.881Z" fill="#FFE492"/>
<path d="M64.8945 304.101C64.1464 304.101 63.4935 303.55 63.3868 302.787C63.271 301.954 63.8523 301.184 64.6866 301.068C69.8337 300.353 74.8018 298.815 79.4537 296.497C80.2071 296.122 81.1221 296.427 81.497 297.181C81.8726 297.934 81.5655 298.848 80.8128 299.224C75.8645 301.689 70.5803 303.325 65.1056 304.087C65.0347 304.097 64.9639 304.101 64.8945 304.101Z" fill="#FFE492"/>
<path d="M80.1325 335.953C79.4933 335.953 78.8967 335.547 78.6857 334.906C78.4221 334.107 78.8564 333.245 79.6555 332.982C88.1434 330.183 93.8459 322.296 93.8459 313.357C93.8459 312.516 94.5285 311.833 95.3696 311.833C96.2107 311.833 96.8934 312.516 96.8934 313.357C96.8934 323.613 90.3498 332.663 80.6094 335.876C80.4509 335.929 80.2909 335.953 80.1325 335.953Z" fill="#FFE492"/>
<path d="M95.3705 314.881C94.5294 314.881 93.8467 314.198 93.8467 313.357V302.577C93.8467 301.736 94.5294 301.054 95.3705 301.054C96.2115 301.054 96.8942 301.736 96.8942 302.577V313.357C96.8942 314.199 96.2115 314.881 95.3705 314.881Z" fill="#FFE492"/>
<path d="M95.372 304.101C95.3019 304.101 95.231 304.097 95.1602 304.087C89.6854 303.325 84.4012 301.689 79.4529 299.224C78.7002 298.848 78.3932 297.934 78.7688 297.181C79.1436 296.427 80.0586 296.122 80.8121 296.497C85.464 298.814 90.4321 300.353 95.5792 301.068C96.4127 301.184 96.9947 301.955 96.8789 302.787C96.7738 303.55 96.1209 304.101 95.372 304.101Z" fill="#FFE492"/>
<g filter="url(#filter2_d_1_426)">
<rect x="639.235" y="276.325" width="81.2649" height="81.2649" rx="10" fill="white"/>
</g>
<g clip-path="url(#clip0_1_426)">
<path d="M693.58 310.482H690.148V302.651C690.148 297.096 685.534 292.578 679.863 292.578C674.192 292.578 669.578 297.096 669.578 302.651V310.482H666.153C663.002 310.482 660.439 313.045 660.439 316.195V335.623C660.439 338.774 663.002 341.337 666.153 341.337H693.58C696.731 341.337 699.294 338.774 699.294 335.623V316.195C699.294 313.045 696.731 310.482 693.58 310.482ZM673.387 302.651C673.387 299.197 676.292 296.387 679.863 296.387C683.434 296.387 686.339 299.197 686.339 302.651V310.482H673.387V302.651ZM695.485 335.623C695.485 336.673 694.63 337.528 693.58 337.528H666.153C665.103 337.528 664.249 336.673 664.249 335.623V316.195C664.249 315.145 665.103 314.291 666.153 314.291H693.58C694.63 314.291 695.485 315.145 695.485 316.195V335.623Z" fill="#4F9CF9"/>
<path d="M679.867 319.814C677.921 319.814 676.344 321.392 676.344 323.338C676.344 324.58 676.987 325.672 677.959 326.299V330.48C677.959 331.532 678.812 332.385 679.864 332.385C680.915 332.385 681.768 331.532 681.768 330.48V326.304C682.744 325.677 683.391 324.583 683.391 323.338C683.391 321.392 681.813 319.814 679.867 319.814Z" fill="#4F9CF9"/>
</g>
<g filter="url(#filter3_d_1_426)">
<rect x="539.279" y="35.7807" width="81.2649" height="81.2649" rx="10" fill="white"/>
</g>
<g clip-path="url(#clip1_1_426)">
<path d="M572.208 52.0337C562.381 52.0337 555.532 55.4463 555.532 58.5092C555.532 61.572 562.381 64.9846 572.208 64.9846C582.035 64.9846 588.884 61.5719 588.884 58.5092C588.884 55.4464 582.036 52.0337 572.208 52.0337Z" fill="#FFE492"/>
<path d="M555.532 88.2606V94.3171C555.532 97.38 562.381 100.793 572.208 100.793C576.613 100.793 580.77 100.099 583.914 98.8391C585.964 98.0181 587.481 96.9998 588.27 95.9416C586.783 94.7781 585.066 93.105 583.57 90.7968C580.277 91.8512 576.385 92.4044 572.208 92.4044C566.953 92.4044 562.037 91.4991 558.366 89.8552C557.295 89.3757 556.348 88.8414 555.532 88.2606V88.2606Z" fill="#FFE492"/>
<path d="M555.532 76.352L555.532 82.3259C555.532 85.3886 562.381 88.8013 572.208 88.8013C575.693 88.8013 579.037 88.3642 581.839 87.5555C580.823 85.2067 580.166 82.614 579.877 79.8082C577.48 80.259 574.869 80.4942 572.208 80.4942C566.919 80.4942 561.98 79.5786 558.301 77.9161C557.257 77.4442 556.331 76.9201 555.532 76.352Z" fill="#FFE492"/>
<path d="M555.532 64.4383V70.4163C555.532 73.479 562.381 76.8917 572.208 76.8917C574.837 76.8917 577.399 76.6441 579.705 76.1707C579.709 75.6046 579.878 74.1313 581.242 73.7569C583.391 73.1668 584.895 71.7503 585.028 69.8072C585.083 69.0073 586.084 67.8863 586.83 67.8975H588.884V64.4383C588.085 65.0064 587.16 65.5306 586.116 66.0031C582.432 67.6696 577.493 68.5875 572.208 68.5875C566.924 68.5875 561.985 67.6696 558.301 66.0031C557.256 65.5306 556.331 65.0064 555.532 64.4383V64.4383Z" fill="#FFE492"/>
<path d="M599.183 71.5005H588.435C587.834 73.9992 585.912 76.049 583.313 76.9428C583.516 88.9368 590.41 93.5103 593.449 94.9442C593.623 95.0261 593.829 95.0173 594 94.921C597.052 93.2015 603.97 88.0833 604.292 76.9387C601.699 76.0428 599.783 73.9954 599.183 71.5005ZM593.165 87.1197C592.435 87.87 591.18 87.8288 590.501 87.0324L587.076 83.0135L589.819 80.6769L591.96 83.1894L597.934 77.0455L600.518 79.5567L593.165 87.1197Z" fill="#FFE492"/>
</g>
<g filter="url(#filter4_d_1_426)">
<rect x="158.959" y="35.7807" width="81.2649" height="81.2649" rx="10" fill="white"/>
</g>
<g clip-path="url(#clip2_1_426)">
<path d="M217.75 56.6294C211.623 50.5019 201.653 50.502 195.525 56.6294C191.34 60.8145 189.887 66.9836 191.698 72.5792L174.006 90.2719C173.738 90.5398 173.587 90.9032 173.587 91.2821V99.3641C173.587 100.153 174.227 100.793 175.016 100.793H183.098C183.477 100.793 183.84 100.642 184.108 100.374L186.129 98.3534C186.438 98.0446 186.588 97.6118 186.538 97.1781L186.286 95.0084L189.293 94.7249C189.976 94.6606 190.517 94.1197 190.582 93.4367L190.865 90.4285L193.035 90.6807C193.44 90.728 193.846 90.5997 194.15 90.3285C194.455 90.0575 194.629 89.6692 194.629 89.2615V86.6009H197.241C197.617 86.6009 197.978 86.4527 198.246 86.1883L201.795 82.6798C207.392 84.494 213.564 83.0411 217.751 78.8547C223.878 72.7272 223.878 62.7569 217.75 56.6294ZM215.73 76.8343C212.124 80.4403 206.715 81.5658 201.95 79.7021C201.424 79.4965 200.826 79.6197 200.425 80.0166L196.654 83.7436H193.2C192.411 83.7436 191.772 84.3833 191.772 85.1723V87.6572L189.745 87.4217C189.363 87.3774 188.98 87.4886 188.681 87.7303C188.382 87.9721 188.194 88.324 188.158 88.7066L187.848 91.9911L184.564 92.3006C184.181 92.3367 183.829 92.5253 183.587 92.8241C183.345 93.1227 183.234 93.5063 183.278 93.888L183.62 96.8216L182.506 97.9355H176.444V91.8741L194.357 73.9611C194.759 73.5598 194.884 72.959 194.678 72.4305C192.814 67.6652 193.939 62.2562 197.545 58.6501C202.559 53.6367 210.716 53.6367 215.73 58.6501C220.743 63.6634 220.743 71.8209 215.73 76.8343Z" fill="#4F9CF9"/>
<path d="M213.709 60.6704C212.037 58.9991 209.318 58.9992 207.647 60.6704C205.976 62.3415 205.976 65.0607 207.647 66.7318C209.318 68.403 212.037 68.4031 213.709 66.7318C215.38 65.0607 215.38 62.3415 213.709 60.6704ZM211.688 64.7114C211.131 65.2684 210.225 65.2685 209.668 64.7114C209.111 64.1544 209.111 63.248 209.668 62.6909C210.226 62.1325 211.13 62.1325 211.688 62.6909C212.247 63.2494 212.246 64.1529 211.688 64.7114Z" fill="#4F9CF9"/>
</g>
<circle cx="382.438" cy="17.0898" r="13.0024" fill="#A7CEFC"/>
<circle cx="284.107" cy="194.247" r="13.0024" fill="#A7CEFC"/>
<circle cx="562.846" cy="316.957" r="13.0024" fill="#A7CEFC"/>
<g clip-path="url(#clip3_1_426)">
<path d="M364.5 300.268V309.349C364.5 312.115 367.954 313.59 370.065 311.654L380.141 302.573C382.348 300.59 380.908 297.087 377.886 297.087H367.81C365.987 297.087 364.5 298.516 364.5 300.268Z" fill="#5986EF"/>
<path d="M412.19 297.087H402.114C399.14 297.087 397.652 300.59 399.859 302.573L409.935 311.654C412.046 313.544 415.5 312.115 415.5 309.349V300.268C415.5 298.516 414.013 297.087 412.19 297.087Z" fill="#5986EF"/>
<path d="M392.279 319.261L409.935 335.211C412.046 337.101 415.5 335.672 415.5 332.906V323.732C415.5 322.856 415.116 322.027 414.444 321.427L392.279 301.374C390.984 300.222 389.016 300.222 387.721 301.374L365.556 321.427C364.884 322.027 364.5 322.856 364.5 323.732V332.906C364.5 335.672 367.954 337.147 370.065 335.211L387.721 319.261C389.016 318.108 390.984 318.108 392.279 319.261Z" fill="#5986EF"/>
</g>
<defs>
<filter id="filter0_d_1_426" x="311.745" y="241.325" width="159.265" height="159.265" filterUnits="userSpaceOnUse" color-interpolation-filters="sRGB">
<feFlood flood-opacity="0" result="BackgroundImageFix"/>
<feColorMatrix in="SourceAlpha" type="matrix" values="0 0 0 0 0 0 0 0 0 0 0 0 0 0 0 0 0 0 127 0" result="hardAlpha"/>
<feMorphology radius="11" operator="erode" in="SourceAlpha" result="effect1_dropShadow_1_426"/>
<feOffset dy="4"/>
<feGaussianBlur stdDeviation="25"/>
<feComposite in2="hardAlpha" operator="out"/>
<feColorMatrix type="matrix" values="0 0 0 0 0 0 0 0 0 0 0 0 0 0 0 0 0 0 0.2 0"/>
<feBlend mode="normal" in2="BackgroundImageFix" result="effect1_dropShadow_1_426"/>
<feBlend mode="normal" in="SourceGraphic" in2="effect1_dropShadow_1_426" result="shape"/>
</filter>
<filter id="filter1_d_1_426" x="0.5" y="241.325" width="159.265" height="159.265" filterUnits="userSpaceOnUse" color-interpolation-filters="sRGB">
<feFlood flood-opacity="0" result="BackgroundImageFix"/>
<feColorMatrix in="SourceAlpha" type="matrix" values="0 0 0 0 0 0 0 0 0 0 0 0 0 0 0 0 0 0 127 0" result="hardAlpha"/>
<feMorphology radius="11" operator="erode" in="SourceAlpha" result="effect1_dropShadow_1_426"/>
<feOffset dy="4"/>
<feGaussianBlur stdDeviation="25"/>
<feComposite in2="hardAlpha" operator="out"/>
<feColorMatrix type="matrix" values="0 0 0 0 0 0 0 0 0 0 0 0 0 0 0 0 0 0 0.2 0"/>
<feBlend mode="normal" in2="BackgroundImageFix" result="effect1_dropShadow_1_426"/>
<feBlend mode="normal" in="SourceGraphic" in2="effect1_dropShadow_1_426" result="shape"/>
</filter>
<filter id="filter2_d_1_426" x="600.235" y="241.325" width="159.265" height="159.265" filterUnits="userSpaceOnUse" color-interpolation-filters="sRGB">
<feFlood flood-opacity="0" result="BackgroundImageFix"/>
<feColorMatrix in="SourceAlpha" type="matrix" values="0 0 0 0 0 0 0 0 0 0 0 0 0 0 0 0 0 0 127 0" result="hardAlpha"/>
<feMorphology radius="11" operator="erode" in="SourceAlpha" result="effect1_dropShadow_1_426"/>
<feOffset dy="4"/>
<feGaussianBlur stdDeviation="25"/>
<feComposite in2="hardAlpha" operator="out"/>
<feColorMatrix type="matrix" values="0 0 0 0 0 0 0 0 0 0 0 0 0 0 0 0 0 0 0.2 0"/>
<feBlend mode="normal" in2="BackgroundImageFix" result="effect1_dropShadow_1_426"/>
<feBlend mode="normal" in="SourceGraphic" in2="effect1_dropShadow_1_426" result="shape"/>
</filter>
<filter id="filter3_d_1_426" x="500.279" y="0.780701" width="159.265" height="159.265" filterUnits="userSpaceOnUse" color-interpolation-filters="sRGB">
<feFlood flood-opacity="0" result="BackgroundImageFix"/>
<feColorMatrix in="SourceAlpha" type="matrix" values="0 0 0 0 0 0 0 0 0 0 0 0 0 0 0 0 0 0 127 0" result="hardAlpha"/>
<feMorphology radius="11" operator="erode" in="SourceAlpha" result="effect1_dropShadow_1_426"/>
<feOffset dy="4"/>
<feGaussianBlur stdDeviation="25"/>
<feComposite in2="hardAlpha" operator="out"/>
<feColorMatrix type="matrix" values="0 0 0 0 0 0 0 0 0 0 0 0 0 0 0 0 0 0 0.2 0"/>
<feBlend mode="normal" in2="BackgroundImageFix" result="effect1_dropShadow_1_426"/>
<feBlend mode="normal" in="SourceGraphic" in2="effect1_dropShadow_1_426" result="shape"/>
</filter>
<filter id="filter4_d_1_426" x="119.959" y="0.780701" width="159.265" height="159.265" filterUnits="userSpaceOnUse" color-interpolation-filters="sRGB">
<feFlood flood-opacity="0" result="BackgroundImageFix"/>
<feColorMatrix in="SourceAlpha" type="matrix" values="0 0 0 0 0 0 0 0 0 0 0 0 0 0 0 0 0 0 127 0" result="hardAlpha"/>
<feMorphology radius="11" operator="erode" in="SourceAlpha" result="effect1_dropShadow_1_426"/>
<feOffset dy="4"/>
<feGaussianBlur stdDeviation="25"/>
<feComposite in2="hardAlpha" operator="out"/>
<feColorMatrix type="matrix" values="0 0 0 0 0 0 0 0 0 0 0 0 0 0 0 0 0 0 0.2 0"/>
<feBlend mode="normal" in2="BackgroundImageFix" result="effect1_dropShadow_1_426"/>
<feBlend mode="normal" in="SourceGraphic" in2="effect1_dropShadow_1_426" result="shape"/>
</filter>
<clipPath id="clip0_1_426">
<rect width="48.7589" height="48.7589" fill="white" transform="translate(655.488 292.578)"/>
</clipPath>
<clipPath id="clip1_1_426">
<rect width="48.7589" height="48.7589" fill="white" transform="translate(555.532 52.0337)"/>
</clipPath>
<clipPath id="clip2_1_426">
<rect width="48.7589" height="48.7589" fill="white" transform="translate(173.587 52.0337)"/>
</clipPath>
<clipPath id="clip3_1_426">
<rect width="51" height="39" fill="white" transform="translate(364.5 297.087)"/>
</clipPath>
</defs>
</svg>
