<svg width="60" height="61" viewBox="0 0 60 61" fill="none" xmlns="http://www.w3.org/2000/svg">
<g clip-path="url(#clip0_1_901)">
<path d="M8.32884 19.4521C7.29504 19.4521 6.4179 19.8127 5.69688 20.5337C4.97585 21.2547 4.61523 22.1199 4.61523 23.1297V38.6344C4.61523 39.6695 4.97575 40.5459 5.69688 41.267C6.4179 41.9881 7.29504 42.3487 8.32884 42.3487C9.36188 42.3487 10.2337 41.9882 10.9435 41.267C11.652 40.546 12.0072 39.6695 12.0072 38.6344V23.1297C12.0072 22.1198 11.6467 21.2547 10.9255 20.5337C10.2044 19.8127 9.33866 19.4521 8.32884 19.4521Z" fill="white"/>
<path d="M38.1846 5.53295L40.7448 0.81018C40.9128 0.497512 40.853 0.25775 40.5649 0.0891571C40.2521 -0.0562191 40.0118 0.0174454 39.8439 0.304943L37.2479 5.06547C34.9637 4.05554 32.5477 3.54965 30.0001 3.54965C27.4519 3.54965 25.0357 4.05565 22.7523 5.06547L20.1562 0.304943C19.9875 0.0174454 19.7472 -0.0555682 19.4352 0.0891571C19.1464 0.258509 19.0866 0.497512 19.2553 0.81018L21.8156 5.53295C19.2195 6.85685 17.1519 8.70063 15.6136 11.0683C14.0752 13.4373 13.3057 16.0261 13.3057 18.8392H46.6582C46.6582 16.0267 45.8886 13.4378 44.3503 11.0683C42.8118 8.70063 40.7562 6.85685 38.1846 5.53295ZM23.3831 12.4023C23.1062 12.6798 22.7755 12.8179 22.3911 12.8179C22.006 12.8179 21.682 12.6798 21.4178 12.4023C21.1535 12.1261 21.0213 11.7967 21.0213 11.411C21.0213 11.0267 21.1535 10.6966 21.4178 10.4198C21.682 10.1435 22.0068 10.0054 22.3911 10.0054C22.7755 10.0054 23.1062 10.1435 23.3831 10.4198C23.6593 10.6973 23.798 11.0267 23.798 11.411C23.7973 11.7961 23.6586 12.1261 23.3831 12.4023ZM38.5809 12.4023C38.3161 12.6798 37.9914 12.8179 37.6077 12.8179C37.2224 12.8179 36.8919 12.6798 36.6155 12.4023C36.3388 12.1261 36.2007 11.7967 36.2007 11.411C36.2007 11.0267 36.3388 10.6966 36.6155 10.4198C36.8919 10.1435 37.2224 10.0054 37.6077 10.0054C37.9921 10.0054 38.316 10.1435 38.5809 10.4198C38.8454 10.6973 38.9774 11.0267 38.9774 11.411C38.9774 11.7961 38.8453 12.1261 38.5809 12.4023Z" fill="white"/>
<path d="M13.4492 44.1501C13.4492 45.2569 13.8336 46.1938 14.6025 46.9627C15.372 47.7316 16.3089 48.1159 17.4149 48.1159H20.0834L20.1199 56.3019C20.1199 57.3356 20.4804 58.2134 21.2015 58.9345C21.9225 59.6556 22.7883 60.0162 23.7975 60.0162C24.8307 60.0162 25.7083 59.6556 26.4295 58.9345C27.1506 58.2134 27.5111 57.3357 27.5111 56.3019V48.1167H32.4869V56.3019C32.4869 57.3356 32.8473 58.2134 33.5684 58.9345C34.2895 59.6556 35.1665 60.0162 36.2004 60.0162C37.2335 60.0162 38.1112 59.6556 38.8323 58.9345C39.5535 58.2134 39.9139 57.3357 39.9139 56.3019V48.1167H42.6183C43.6998 48.1167 44.6247 47.7322 45.395 46.9633C46.1637 46.1945 46.5483 45.2576 46.5483 44.1509V20.1355H13.4492V44.1501Z" fill="white"/>
<path d="M51.6709 19.4521C50.6609 19.4521 49.7958 19.8073 49.0747 20.5158C48.3537 21.2255 47.9932 22.0973 47.9932 23.1297V38.6344C47.9932 39.6695 48.3536 40.5459 49.0747 41.267C49.7958 41.9882 50.6616 42.3487 51.6709 42.3487C52.704 42.3487 53.5817 41.9882 54.3028 41.267C55.0239 40.5459 55.3843 39.6695 55.3843 38.6344V23.1297C55.3843 22.0972 55.0239 21.2255 54.3028 20.5158C53.5817 19.8073 52.704 19.4521 51.6709 19.4521Z" fill="white"/>
</g>
<defs>
<clipPath id="clip0_1_901">
<rect width="60" height="60" fill="white" transform="translate(0 0.0166016)"/>
</clipPath>
</defs>
</svg>
