<svg width="56" height="69" viewBox="0 0 56 69" fill="none" xmlns="http://www.w3.org/2000/svg">
<path d="M46.3673 38.8367C44.4968 29.4229 53.4321 23.9018 53.4321 23.9018C53.4321 23.9018 49.9508 18.8652 44.1 17.5694C38.2521 16.2709 35.3252 17.8933 32.4041 19.1101C29.4802 20.33 28.0211 20.33 28.0211 20.33C23.8016 20.33 20.717 15.8623 12.6777 17.8963C7.13915 19.294 1.30867 25.6877 0.255239 33.3186C-0.798195 40.9524 1.47507 50.693 5.85804 58.2422C10.241 65.7973 14.7058 68.6366 17.8748 68.7183C21.0439 68.797 24.2072 66.448 28.0211 65.876C31.8381 65.3099 34.1871 67.2593 37.931 68.3127C41.6603 69.3633 42.9677 68.3886 47.2631 64.7351C51.5702 61.0815 55.4689 50.6027 55.4689 50.6027C55.4689 50.6027 48.2378 48.2563 46.3673 38.8367Z" fill="black"/>
<path d="M38.0857 11.4791C42.2293 7.25674 40.8258 0.720093 40.8258 0.720093C40.8258 0.720093 35.0071 1.74147 31.1084 5.7976C27.2127 9.85671 27.8576 16.2678 27.8576 16.2678C27.8576 16.2678 33.9419 15.6988 38.0857 11.4791Z" fill="black"/>
</svg>
