<svg width="60" height="61" viewBox="0 0 60 61" fill="none" xmlns="http://www.w3.org/2000/svg">
<g clip-path="url(#clip0_1_889)">
<path d="M46.4408 33.6486C44.7903 25.3423 52.6744 20.4707 52.6744 20.4707C52.6744 20.4707 49.6027 16.0266 44.4402 14.8833C39.2803 13.7375 36.6978 15.1691 34.1203 16.2428C31.5404 17.3191 30.253 17.3191 30.253 17.3191C26.5299 17.3191 23.8082 13.377 16.7147 15.1717C11.8277 16.405 6.68317 22.0465 5.75367 28.7796C4.82417 35.5153 6.82999 44.11 10.6973 50.7711C14.5646 57.4373 18.5042 59.9426 21.3003 60.0147C24.0966 60.0841 26.8877 58.0115 30.253 57.5068C33.6209 57.0072 35.6936 58.7273 38.997 59.6568C42.2876 60.5838 43.4411 59.7238 47.2312 56.5C51.0316 53.2763 54.4716 44.0303 54.4716 44.0303C54.4716 44.0303 48.0912 41.96 46.4408 33.6486Z" fill="white"/>
<path d="M39.1335 9.50987C42.7896 5.78423 41.5512 0.0166016 41.5512 0.0166016C41.5512 0.0166016 36.4171 0.917813 32.9771 4.49675C29.5397 8.07832 30.1087 13.7352 30.1087 13.7352C30.1087 13.7352 35.4772 13.2331 39.1335 9.50987Z" fill="white"/>
</g>
<defs>
<clipPath id="clip0_1_889">
<rect width="60" height="60" fill="white" transform="translate(0 0.0166016)"/>
</clipPath>
</defs>
</svg>
