<svg width="211" height="71" viewBox="0 0 211 71" fill="none" xmlns="http://www.w3.org/2000/svg">
<path d="M90.2977 37.5529C90.2977 47.5971 82.4804 54.9985 72.8868 54.9985C63.2932 54.9985 55.476 47.5971 55.476 37.5529C55.476 27.4379 63.2932 20.1073 72.8868 20.1073C82.4804 20.1073 90.2977 27.4379 90.2977 37.5529ZM82.676 37.5529C82.676 31.2762 78.1453 26.9817 72.8868 26.9817C67.6283 26.9817 63.0976 31.2762 63.0976 37.5529C63.0976 43.7666 67.6283 48.1241 72.8868 48.1241C78.1453 48.1241 82.676 43.7587 82.676 37.5529Z" fill="#EA4335"/>
<path d="M127.858 37.5529C127.858 47.5971 120.041 54.9985 110.447 54.9985C100.854 54.9985 93.0363 47.5971 93.0363 37.5529C93.0363 27.4458 100.854 20.1073 110.447 20.1073C120.041 20.1073 127.858 27.4379 127.858 37.5529ZM120.236 37.5529C120.236 31.2762 115.706 26.9817 110.447 26.9817C105.189 26.9817 100.658 31.2762 100.658 37.5529C100.658 43.7666 105.189 48.1241 110.447 48.1241C115.706 48.1241 120.236 43.7587 120.236 37.5529Z" fill="#FBBC05"/>
<path d="M163.854 21.1613V52.4815C163.854 65.3651 156.294 70.6271 147.358 70.6271C138.946 70.6271 133.883 64.9718 131.974 60.3469L138.61 57.5704C139.791 60.4099 142.687 63.7605 147.35 63.7605C153.071 63.7605 156.615 60.2132 156.615 53.5355V51.0264H156.349C154.643 53.1422 151.357 54.9906 147.21 54.9906C138.531 54.9906 130.581 47.3925 130.581 37.6158C130.581 27.7682 138.531 20.1073 147.21 20.1073C151.349 20.1073 154.636 21.9557 156.349 24.0086H156.615V21.1691H163.854V21.1613ZM157.155 37.6158C157.155 31.4729 153.078 26.9817 147.89 26.9817C142.632 26.9817 138.226 31.4729 138.226 37.6158C138.226 43.6958 142.632 48.124 147.89 48.124C153.078 48.124 157.155 43.6958 157.155 37.6158Z" fill="#4285F4"/>
<path d="M175.787 2.8031V53.9285H168.353V2.8031H175.787Z" fill="#34A853"/>
<path d="M204.756 43.2944L210.671 47.2586C208.762 50.0981 204.161 54.9904 196.211 54.9904C186.351 54.9904 178.987 47.3294 178.987 37.5448C178.987 27.1703 186.413 20.0992 195.358 20.0992C204.364 20.0992 208.77 27.304 210.21 31.1974L211 33.1795L187.799 42.8383C189.575 46.3384 192.337 48.1238 196.211 48.1238C200.092 48.1238 202.784 46.2047 204.756 43.2944ZM186.546 37.0178L202.056 30.5446C201.203 28.3658 198.636 26.8478 195.616 26.8478C191.742 26.8478 186.351 30.285 186.546 37.0178Z" fill="#EA4335"/>
<path d="M27.3368 33.0144V25.613H52.1502C52.3928 26.9029 52.518 28.4288 52.518 30.0806C52.518 35.6336 51.0077 42.5001 46.1405 47.3924C41.4063 52.3477 35.3575 54.9905 27.3446 54.9905C12.4925 54.9905 0.00366211 42.8305 0.00366211 27.9018C0.00366211 12.9732 12.4925 0.813232 27.3446 0.813232C35.561 0.813232 41.4141 4.0538 45.8119 8.27754L40.616 13.5002C37.4625 10.5271 33.19 8.21462 27.3368 8.21462C16.4912 8.21462 8.00875 17.0003 8.00875 27.9018C8.00875 38.8034 16.4912 47.5891 27.3368 47.5891C34.3715 47.5891 38.378 44.7496 40.9446 42.1698C43.0261 40.0776 44.3955 37.0887 44.9354 33.0065L27.3368 33.0144Z" fill="#4285F4"/>
</svg>
