<svg width="15" height="16" viewBox="0 0 15 16" fill="none" xmlns="http://www.w3.org/2000/svg">
<path d="M14.9963 15.5165V15.5159H15V9.99736C15 7.29766 14.4247 5.21802 11.3004 5.21802C9.79839 5.21802 8.79045 6.05063 8.37897 6.83997H8.33552V5.47006H5.37317V15.5159H8.45779V10.5416C8.45779 9.23184 8.70356 7.96537 10.3092 7.96537C11.8912 7.96537 11.9148 9.46005 11.9148 10.6256V15.5165H14.9963Z" fill="#F7F7EE"/>
<path d="M0.223877 5.44214H3.35821V15.2929H0.223877V5.44214Z" fill="#F7F7EE"/>
<path d="M1.79104 0.516602C0.802303 0.516602 0 1.31516 0 2.2993C0 3.28343 0.802303 4.09869 1.79104 4.09869C2.77979 4.09869 3.58209 3.28343 3.58209 2.2993C3.58147 1.31516 2.77916 0.516602 1.79104 0.516602V0.516602Z" fill="#F7F7EE"/>
</svg>
