<svg width="288" height="63" viewBox="0 0 288 63" fill="none" xmlns="http://www.w3.org/2000/svg">
<g clip-path="url(#clip0_1_522)">
<path d="M287.647 28.7693V23.6646H281.379V15.7287L281.168 15.7944L275.281 17.6162L275.165 17.6518V23.6649H265.873V20.3151C265.873 18.7553 266.218 17.5617 266.897 16.7657C267.572 15.9792 268.537 15.5794 269.769 15.5794C270.654 15.5794 271.57 15.7902 272.493 16.2061L272.724 16.3105V10.9346L272.615 10.8941C271.755 10.5813 270.584 10.4238 269.134 10.4238C267.306 10.4238 265.645 10.8262 264.196 11.6236C262.746 12.4222 261.606 13.5622 260.807 15.0116C260.011 16.4593 259.607 18.1314 259.607 19.9818V23.6646H255.243V28.7693H259.607V50.2745H265.873V28.7693H275.165V42.4355C275.165 48.0638 277.79 50.9161 282.967 50.9161C283.817 50.9161 284.713 50.8153 285.627 50.6179C286.558 50.4152 287.191 50.2127 287.565 49.9965L287.647 49.9471V44.7952L287.392 44.9656C287.052 45.1948 286.629 45.382 286.132 45.5213C285.634 45.6631 285.217 45.7342 284.895 45.7342C283.682 45.7342 282.785 45.4037 282.228 44.7514C281.665 44.0932 281.379 42.9423 281.379 41.3323V28.7693H287.647ZM241.252 45.735C238.977 45.735 237.185 44.9724 235.921 43.4702C234.65 41.9604 234.006 39.8079 234.006 37.073C234.006 34.2514 234.65 32.043 235.922 30.5065C237.186 28.9802 238.962 28.2055 241.2 28.2055C243.373 28.2055 245.102 28.9454 246.341 30.4057C247.586 31.8737 248.218 34.0644 248.218 36.9189C248.218 39.8084 247.624 42.0281 246.452 43.5129C245.289 44.9864 243.539 45.735 241.252 45.735ZM241.53 23.0236C237.191 23.0236 233.746 24.3093 231.288 26.8451C228.833 29.3811 227.588 32.8907 227.588 37.2771C227.588 41.4435 228.803 44.7946 231.2 47.2361C233.598 49.6784 236.86 50.9155 240.896 50.9155C245.101 50.9155 248.479 49.6118 250.934 47.0409C253.39 44.4729 254.634 40.9964 254.634 36.7125C254.634 32.481 253.467 29.1048 251.163 26.6797C248.859 24.2534 245.617 23.0236 241.53 23.0236ZM217.487 23.0236C214.535 23.0236 212.094 23.787 210.229 25.2923C208.353 26.8066 207.401 28.7926 207.401 31.1959C207.401 32.4451 207.607 33.5548 208.011 34.496C208.418 35.4402 209.047 36.2717 209.883 36.9694C210.713 37.6615 211.994 38.3865 213.692 39.1242C215.119 39.718 216.183 40.2204 216.859 40.6163C217.52 41.0043 217.989 41.3943 218.253 41.7742C218.511 42.146 218.641 42.6548 218.641 43.2826C218.641 45.0704 217.318 45.9403 214.594 45.9403C213.583 45.9403 212.431 45.7269 211.169 45.3062C209.915 44.892 208.732 44.2853 207.661 43.5075L207.401 43.3188V49.4195L207.496 49.4644C208.383 49.8783 209.501 50.2273 210.818 50.5019C212.133 50.7768 213.327 50.9166 214.365 50.9166C217.568 50.9166 220.147 50.1495 222.028 48.6353C223.922 47.1106 224.882 45.0777 224.882 42.5913C224.882 40.7976 224.365 39.2595 223.347 38.019C222.335 36.7886 220.58 35.659 218.132 34.6605C216.181 33.8687 214.931 33.2114 214.416 32.7068C213.919 32.2193 213.666 31.53 213.666 30.657C213.666 29.8832 213.978 29.2632 214.617 28.7612C215.262 28.2566 216.159 28 217.284 28C218.328 28 219.396 28.1667 220.458 28.4936C221.519 28.8204 222.451 29.2582 223.23 29.7936L223.486 29.9705V24.1835L223.387 24.1408C222.669 23.8294 221.723 23.563 220.573 23.3468C219.428 23.132 218.39 23.0236 217.487 23.0236ZM191.068 45.735C188.795 45.735 187.001 44.9724 185.738 43.4702C184.466 41.9604 183.823 39.8084 183.823 37.073C183.823 34.2514 184.467 32.043 185.739 30.5065C187.002 28.9802 188.778 28.2055 191.018 28.2055C193.189 28.2055 194.919 28.9454 196.158 30.4057C197.403 31.8737 198.035 34.0644 198.035 36.9189C198.035 39.8084 197.44 42.0281 196.269 43.5129C195.105 44.9864 193.356 45.735 191.068 45.735ZM191.347 23.0236C187.008 23.0236 183.561 24.3093 181.106 26.8451C178.65 29.3811 177.405 32.8907 177.405 37.2771C177.405 41.4451 178.621 44.7946 181.018 47.2361C183.415 49.6784 186.677 50.9155 190.713 50.9155C194.918 50.9155 198.296 49.6118 200.752 47.0409C203.207 44.4729 204.452 40.9964 204.452 36.7125C204.452 32.481 203.284 29.1048 200.98 26.6797C198.675 24.2534 195.434 23.0236 191.347 23.0236ZM167.894 28.2729V23.6646H161.705V50.2739H167.894V36.6622C167.894 34.3477 168.413 32.4462 169.437 31.01C170.448 29.5909 171.795 28.8718 173.44 28.8718C173.997 28.8718 174.623 28.9647 175.301 29.1487C175.971 29.3314 176.457 29.53 176.744 29.7389L177.004 29.9295V23.6191L176.904 23.5756C176.327 23.3279 175.512 23.203 174.48 23.203C172.925 23.203 171.533 23.7084 170.341 24.7035C169.295 25.5782 168.538 26.7774 167.96 28.2729H167.894ZM150.622 23.0236C147.783 23.0236 145.25 23.6393 143.096 24.8532C140.937 26.0698 139.268 27.8068 138.132 30.0154C137.001 32.2188 136.427 34.7925 136.427 37.6627C136.427 40.1768 136.984 42.4841 138.084 44.5175C139.185 46.5543 140.743 48.1478 142.715 49.253C144.685 50.3568 146.961 50.9164 149.481 50.9164C152.423 50.9164 154.934 50.3217 156.947 49.1488L157.029 49.1016V43.3671L156.768 43.5592C155.856 44.2311 154.837 44.7674 153.741 45.1538C152.647 45.5399 151.649 45.735 150.775 45.735C148.346 45.735 146.397 44.9665 144.982 43.4514C143.564 41.9343 142.845 39.8039 142.845 37.1233C142.845 34.4258 143.595 32.2407 145.072 30.6284C146.546 29.0209 148.499 28.2055 150.877 28.2055C152.911 28.2055 154.894 28.9021 156.769 30.278L157.029 30.4686V24.4264L156.945 24.3786C156.239 23.9791 155.276 23.6492 154.081 23.399C152.892 23.1494 151.728 23.0236 150.622 23.0236ZM132.165 23.6649H125.976V50.2739H132.165V23.6649ZM129.134 12.3292C128.115 12.3292 127.227 12.6799 126.497 13.3749C125.764 14.0718 125.392 14.9493 125.392 15.9848C125.392 17.0041 125.759 17.8655 126.485 18.5439C127.207 19.2203 128.098 19.5632 129.134 19.5632C130.17 19.5632 131.064 19.2203 131.794 18.545C132.529 17.8655 132.901 17.0043 132.901 15.9848C132.901 14.9855 132.539 14.117 131.824 13.403C131.111 12.6903 130.205 12.3292 129.134 12.3292ZM113.692 21.7016V50.2739H120.008V13.1438H111.266L100.155 40.723L89.3718 13.1438H80.2741V50.2736H86.2096V21.6988H86.4134L97.7999 50.2739H102.279L113.488 21.7016H113.692Z" fill="#706D6E"/>
<path d="M29.7618 30.1824H0.647141V0.736816H29.7618V30.1824Z" fill="#F1511B"/>
<path d="M61.9075 30.1817H32.7935V0.736206H61.9075V30.1817Z" fill="#80CC28"/>
<path d="M29.7609 62.7043H0.647141V33.259H29.7609V62.7043Z" fill="#00ADEF"/>
<path d="M61.9075 62.7043H32.7935V33.259H61.9075V62.7043Z" fill="#FBBC09"/>
</g>
<defs>
<clipPath id="clip0_1_522">
<rect width="287" height="62" fill="white" transform="translate(0.647156 0.720215)"/>
</clipPath>
</defs>
</svg>
