<svg width="281" height="72" viewBox="0 0 281 72" fill="none" xmlns="http://www.w3.org/2000/svg">
<g clip-path="url(#clip0_1_529)">
<path d="M90.5051 55.8463L93.991 47.7959C97.7581 50.5911 102.762 52.0447 107.71 52.0447C111.365 52.0447 113.67 50.6471 113.67 48.5226C113.614 42.5967 91.7983 47.2368 91.6296 32.3659C91.5734 24.8187 98.3204 19.0045 107.879 19.0045C113.557 19.0045 119.236 20.4022 123.284 23.5888L120.023 31.8069C116.312 29.4589 111.702 27.7817 107.316 27.7817C104.336 27.7817 102.369 29.1793 102.369 30.9683C102.425 36.7825 124.409 33.5959 124.634 47.7959C124.634 55.5108 118.055 60.9337 108.61 60.9337C101.694 60.9337 95.3404 59.3124 90.5051 55.8463ZM224.264 44.8888C222.521 47.9077 219.26 49.9762 215.493 49.9762C209.927 49.9762 205.429 45.5037 205.429 39.9691C205.429 34.4345 209.927 29.962 215.493 29.962C219.26 29.962 222.521 32.0305 224.264 35.0494L233.879 29.7384C230.28 23.3652 223.365 19.0045 215.493 19.0045C203.854 19.0045 194.409 28.3967 194.409 39.9691C194.409 51.5415 203.854 60.9337 215.493 60.9337C223.421 60.9337 230.28 56.6289 233.879 50.1998L224.264 44.8888ZM129.469 1.61792H141.501V60.151H129.469V1.61792ZM238.601 1.61792V60.151H250.634V42.5967L264.915 60.151H280.32L262.16 39.2982L278.971 19.8431H264.24L250.634 35.9998V1.61792H238.601ZM177.26 45.0006C175.517 47.8518 171.919 49.9762 167.871 49.9762C162.304 49.9762 157.806 45.5037 157.806 39.9691C157.806 34.4345 162.304 29.962 167.871 29.962C171.919 29.962 175.517 32.1982 177.26 35.1053V45.0006ZM177.26 19.8431V24.5951C175.292 21.2967 170.401 19.0045 165.284 19.0045C154.714 19.0045 146.393 28.2848 146.393 39.9132C146.393 51.5415 154.714 60.9337 165.284 60.9337C170.401 60.9337 175.292 58.6415 177.26 55.3431V60.0951H189.292V19.8431H177.26Z" fill="black"/>
<path d="M16.1199 44.9446C16.1199 49.0257 12.8026 52.3241 8.69821 52.3241C4.59379 52.3241 1.27652 49.0257 1.27652 44.9446C1.27652 40.8635 4.59379 37.5651 8.69821 37.5651H16.1199V44.9446ZM19.8307 44.9446C19.8307 40.8635 23.148 37.5651 27.2524 37.5651C31.3568 37.5651 34.6741 40.8635 34.6741 44.9446V63.3934C34.6741 67.4745 31.3568 70.7729 27.2524 70.7729C23.148 70.7729 19.8307 67.4745 19.8307 63.3934V44.9446Z" fill="#E01E5A"/>
<path d="M27.2521 15.3147C23.1477 15.3147 19.8304 12.0163 19.8304 7.93519C19.8304 3.85409 23.1477 0.555664 27.2521 0.555664C31.3565 0.555664 34.6738 3.85409 34.6738 7.93519V15.3147H27.2521ZM27.2521 19.0604C31.3565 19.0604 34.6738 22.3588 34.6738 26.4399C34.6738 30.521 31.3565 33.8194 27.2521 33.8194H8.64166C4.53724 33.8194 1.21997 30.521 1.21997 26.4399C1.21997 22.3588 4.53724 19.0604 8.64166 19.0604H27.2521Z" fill="#36C5F0"/>
<path d="M56.9951 26.4399C56.9951 22.3588 60.3124 19.0604 64.4168 19.0604C68.5212 19.0604 71.8385 22.3588 71.8385 26.4399C71.8385 30.521 68.5212 33.8194 64.4168 33.8194H56.9951V26.4399ZM53.2843 26.4399C53.2843 30.521 49.967 33.8194 45.8626 33.8194C41.7582 33.8194 38.4409 30.521 38.4409 26.4399V7.93519C38.4409 3.85409 41.7582 0.555664 45.8626 0.555664C49.967 0.555664 53.2843 3.85409 53.2843 7.93519V26.4399Z" fill="#2EB67D"/>
<path d="M45.8626 56.0139C49.967 56.0139 53.2843 59.3123 53.2843 63.3934C53.2843 67.4745 49.967 70.7729 45.8626 70.7729C41.7582 70.7729 38.4409 67.4745 38.4409 63.3934V56.0139H45.8626ZM45.8626 52.3241C41.7582 52.3241 38.4409 49.0257 38.4409 44.9446C38.4409 40.8635 41.7582 37.5651 45.8626 37.5651H64.473C68.5774 37.5651 71.8947 40.8635 71.8947 44.9446C71.8947 49.0257 68.5774 52.3241 64.473 52.3241H45.8626Z" fill="#ECB22E"/>
</g>
<defs>
<clipPath id="clip0_1_529">
<rect width="280" height="71" fill="white" transform="translate(0.825439 0.220215)"/>
</clipPath>
</defs>
</svg>
