<svg width="17" height="14" viewBox="0 0 17 14" fill="none" xmlns="http://www.w3.org/2000/svg">
<path d="M17 1.74554C16.3678 2.02285 15.6942 2.20666 14.9919 2.29591C15.7144 1.86454 16.2658 1.18666 16.5251 0.369602C15.8514 0.771227 15.1077 1.05491 14.3151 1.21323C13.6754 0.532164 12.7638 0.110352 11.7693 0.110352C9.83981 0.110352 8.28644 1.67648 8.28644 3.59641C8.28644 3.87266 8.30981 4.13829 8.36719 4.39116C5.46975 4.24985 2.90594 2.86116 1.18362 0.745727C0.882937 1.26741 0.706563 1.86454 0.706563 2.50735C0.706563 3.71435 1.32812 4.78429 2.25463 5.40373C1.69469 5.3931 1.14538 5.23054 0.68 4.97448C0.68 4.9851 0.68 4.99891 0.68 5.01273C0.68 6.70635 1.88806 8.1131 3.47225 8.43716C3.18856 8.51473 2.87937 8.55191 2.5585 8.55191C2.33538 8.55191 2.11012 8.53916 1.89869 8.49241C2.35025 9.8726 3.63163 10.8873 5.15525 10.9202C3.9695 11.8478 2.46394 12.4067 0.834063 12.4067C0.54825 12.4067 0.274125 12.3939 0 12.3589C1.54381 13.3544 3.37344 13.9229 5.3465 13.9229C11.7597 13.9229 15.266 8.61035 15.266 4.00548C15.266 3.85141 15.2607 3.70266 15.2533 3.55498C15.9449 3.0641 16.5261 2.45104 17 1.74554Z" fill="#F7F7EE"/>
</svg>
